<?xml version="1.0" standalone="no"?>
<!DOCTYPE svg PUBLIC "-//W3C//DTD SVG 20010904//EN"
 "http://www.w3.org/TR/2001/REC-SVG-20010904/DTD/svg10.dtd">
<svg version="1.0" xmlns="http://www.w3.org/2000/svg"
 width="700.000000pt" height="700.000000pt" viewBox="0 0 700.000000 700.000000"
 preserveAspectRatio="xMidYMid meet">
<metadata>
Created by potrace 1.14, written by Peter Selinger 2001-2017
</metadata>
<g transform="translate(0.000000,700.000000) scale(0.100000,-0.100000)"
fill="#000000" stroke="none">
<path d="M1095 6700 c-22 -4 -56 -11 -76 -14 -40 -6 -167 -50 -214 -74 -75
-37 -186 -120 -248 -185 -129 -134 -209 -284 -248 -467 -17 -81 -17 -205 -16
-2480 1 -1317 6 -2408 10 -2425 67 -269 175 -438 372 -585 84 -63 228 -132
304 -146 14 -3 28 -7 31 -9 4 -3 32 -8 61 -12 74 -11 4790 -10 4858 0 129 20
288 87 393 165 196 143 316 330 368 572 18 81 18 196 19 2455 0 2077 -2 2380
-15 2448 -75 389 -362 676 -751 751 -68 13 -374 15 -2443 14 -1301 0 -2383 -4
-2405 -8z m653 -1013 l2 -437 -437 2 -438 3 0 275 c-1 151 3 294 7 317 23 129
127 237 261 267 28 7 158 11 325 11 l277 0 3 -438z m2918 -717 c0 -635 -1
-1161 -4 -1167 -3 -10 -246 -13 -1166 -13 l-1162 0 2 1168 c0 642 2 1167 3
1167 0 0 524 0 1164 0 l1162 0 1 -1155z m1194 1146 c89 -21 182 -92 223 -171
37 -73 43 -129 42 -415 l0 -275 -438 -3 -437 -2 0 433 c0 239 2 436 4 438 8 8
570 3 606 -5z m-4110 -1888 l0 -438 -437 2 -438 3 -1 430 c0 237 1 433 2 436
2 3 199 5 438 5 l436 0 0 -438z m4376 12 c0 -234 -2 -431 -4 -437 -3 -10 -100
-13 -438 -13 l-434 0 0 433 c0 239 2 436 5 439 3 2 199 4 437 4 l433 -1 1
-425z m-4378 -1468 l-3 -437 -435 0 -435 0 -1 430 c0 237 1 433 3 437 2 4 199
7 438 7 l435 0 -2 -437z m2918 -727 c0 -641 -2 -1166 -5 -1166 -3 -1 -527 -2
-1163 -3 -784 -1 -1159 2 -1160 9 0 5 -2 531 -3 1167 l-1 1158 1166 0 1166 -1
0 -1164z m1455 1152 c1 -7 2 -202 3 -434 1 -276 -2 -424 -9 -425 -5 -1 -202
-2 -437 -3 l-428 -1 0 438 0 437 435 0 c334 0 435 -3 436 -12z m-4371 -1885
l0 -438 -292 1 c-309 2 -346 6 -418 51 -79 49 -134 125 -155 219 -7 32 -10
150 -9 325 1 151 2 276 3 278 0 1 197 2 436 2 l435 0 0 -438z m4374 148 c-1
-157 -4 -300 -8 -318 -24 -118 -135 -230 -256 -258 -19 -4 -164 -8 -322 -9
l-288 -1 0 438 0 438 438 -2 437 -3 -1 -285z"/>
</g>
</svg>
